<svg width="101" height="102" viewBox="0 0 101 102" fill="none" xmlns="http://www.w3.org/2000/svg">
<path fill-rule="evenodd" clip-rule="evenodd" d="M83.7017 4.14365H16.5746C9.70917 4.14365 4.14365 9.70917 4.14365 16.5746V85.3591C4.14365 92.2245 9.70917 97.7901 16.5746 97.7901H83.7017C90.5671 97.7901 96.1326 92.2245 96.1326 85.3591V16.5746C96.1326 9.70917 90.5671 4.14365 83.7017 4.14365ZM16.5746 0C7.42069 0 0 7.4207 0 16.5746V85.3591C0 94.513 7.4207 101.934 16.5746 101.934H83.7017C92.8555 101.934 100.276 94.513 100.276 85.3591V16.5746C100.276 7.42069 92.8555 0 83.7017 0H16.5746Z" fill="white"/>
</svg>
